HIERARCHY
ROOT Hips
{
	OFFSET -0.001795 -0.223333 0.028219
	CHANNELS 6 Xposition Yposition Zposition Zrotation Yrotation Xrotation 
	JOINT LeftUpLeg
	{
		OFFSET 0.069520 -0.091406 -0.006815
		CHANNELS 3 Zrotation Yrotation Xrotation
		JOINT LeftLeg
		{
			OFFSET 0.034277 -0.375199 -0.004496
			CHANNELS 3 Zrotation Yrotation Xrotation
			JOINT LeftFoot
			{
				OFFSET -0.013596 -0.397961 -0.043693
				CHANNELS 3 Zrotation Yrotation Xrotation
				JOINT LeftToe
				{
					OFFSET 0.026358 -0.055791 0.119288
					CHANNELS 3 Zrotation Yrotation Xrotation
					End Site
					{
						OFFSET 0.000000 0.000000 0.000000
					}
				}
			}
		}
	}
	JOINT RightUpLeg
	{
		OFFSET -0.067670 -0.090522 -0.004320
		CHANNELS 3 Zrotation Yrotation Xrotation
		JOINT RightLeg
		{
			OFFSET -0.038290 -0.382569 -0.008850
			CHANNELS 3 Zrotation Yrotation Xrotation
			JOINT RightFoot
			{
				OFFSET 0.015774 -0.398415 -0.042312
				CHANNELS 3 Zrotation Yrotation Xrotation
				JOINT RightToe
				{
					OFFSET -0.025372 -0.048144 0.123348
					CHANNELS 3 Zrotation Yrotation Xrotation
					End Site
					{
						OFFSET 0.000000 0.000000 0.000000
					}
				}
			}
		}
	}
	JOINT Spine
	{
		OFFSET -0.002533 0.108963 -0.026696
		CHANNELS 3 Zrotation Yrotation Xrotation
		JOINT Spine1
		{
			OFFSET 0.005487 0.135180 0.001092
			CHANNELS 3 Zrotation Yrotation Xrotation
			JOINT Spine2
			{
				OFFSET 0.001457 0.052922 0.025425
				CHANNELS 3 Zrotation Yrotation Xrotation
				JOINT Neck
				{
					OFFSET -0.002778 0.213870 -0.042857
					CHANNELS 3 Zrotation Yrotation Xrotation
					JOINT Head
					{
						OFFSET 0.005152 0.064970 0.051349
						CHANNELS 3 Zrotation Yrotation Xrotation
						End Site
						{
							OFFSET 0.000000 0.000000 0.000000
						}
					}
				}
				JOINT LeftShoulder
				{
					OFFSET 0.078845 0.121749 -0.034090
					CHANNELS 3 Zrotation Yrotation Xrotation
					JOINT LeftArm
					{
						OFFSET 0.090977 0.030469 -0.008868
						CHANNELS 3 Zrotation Yrotation Xrotation
						JOINT LeftForeArm
						{
							OFFSET 0.259612 -0.012772 -0.027456
							CHANNELS 3 Zrotation Yrotation Xrotation
							JOINT LeftHand
							{
								OFFSET 0.249234 0.008986 -0.001171
								CHANNELS 3 Zrotation Yrotation Xrotation
								End Site
								{
									OFFSET 0.000000 0.000000 0.000000
								}
							}
						}
					}
				}
				JOINT RightShoulder
				{
					OFFSET -0.081759 0.118833 -0.038615
					CHANNELS 3 Zrotation Yrotation Xrotation
					JOINT RightArm
					{
						OFFSET -0.096012 0.032551 -0.009143
						CHANNELS 3 Zrotation Yrotation Xrotation
						JOINT RightForeArm
						{
							OFFSET -0.253742 -0.013329 -0.021401
							CHANNELS 3 Zrotation Yrotation Xrotation
							JOINT RightHand
							{
								OFFSET -0.255298 0.007772 -0.005559
								CHANNELS 3 Zrotation Yrotation Xrotation
								End Site
								{
									OFFSET 0.000000 0.000000 0.000000
								}
							}
						}
					}
				}
			}
		}
	}
}
MOTION
Frames: 10
Frame Time: 0.050000
-0.832705 0.968242 -0.008491 179.149250 47.518690 -172.538425 12.346078 -10.500008 -29.590065 -37.409130 -17.142078 27.142557 47.740681 18.762799 45.869800 0.000000 0.000000 0.000000 -0.902568 -6.748225 -14.823562 -4.440099 -10.456938 18.329132 12.331943 0.284814 -0.479388 0.000000 0.000000 0.000000 0.395190 -0.273475 5.038498 -1.912990 -5.690924 -2.502828 -4.557326 13.799235 2.441171 2.480057 -1.800222 -12.474609 0.000000 0.000000 0.000000 -12.791159 -3.211304 -33.901269 -42.334098 18.309071 -10.017153 -32.690675 -22.118534 1.831437 0.000000 0.000000 0.000000 19.804694 -10.108322 19.760681 38.618777 30.650801 5.024548 -4.150039 30.558972 0.398757 0.000000 0.000000 0.000000 
-0.829919 0.971450 -0.018729 178.309139 43.536662 -172.854087 11.433320 -9.936830 -27.910862 -34.193206 -17.568577 22.195495 54.103966 5.825303 53.102874 0.000000 0.000000 0.000000 -1.958796 -7.180402 -12.752560 -3.063319 -10.132071 15.814114 8.026300 -5.100199 1.779816 0.000000 0.000000 0.000000 -0.338193 -0.195506 4.316837 -2.132626 -6.350694 -2.894592 -5.041898 16.325522 1.763673 2.448516 -3.884782 -12.765086 0.000000 0.000000 0.000000 -10.726489 -3.441178 -36.947631 -41.433098 22.788430 -12.250982 -34.949220 -19.542525 1.206926 0.000000 0.000000 0.000000 21.496746 -11.628496 23.711075 32.772108 35.124449 4.371302 -5.512910 33.684649 -0.015510 0.000000 0.000000 0.000000 
-0.828084 0.971391 -0.034294 178.485623 38.539811 -172.666198 8.621778 -8.857956 -26.046635 -25.030430 -14.952218 16.869330 59.243005 -14.803791 53.697162 0.000000 0.000000 0.000000 -2.142332 -6.569340 -9.272150 -0.571190 -9.236607 11.139588 2.552201 -12.527889 4.461855 0.000000 0.000000 0.000000 0.083571 -0.179987 4.031118 -1.144143 -6.921218 -3.563570 -5.619553 17.087718 2.593468 3.237000 -4.811238 -14.844472 0.000000 0.000000 0.000000 -9.377158 -3.993693 -42.944581 -39.578978 29.331197 -14.235028 -37.757748 -15.912783 0.422914 0.000000 0.000000 0.000000 20.795291 -12.736264 26.551729 30.755912 39.458575 5.795435 -10.181303 34.855560 -1.193897 0.000000 0.000000 0.000000 
-0.827525 0.969107 -0.054987 178.625265 32.946349 -172.082195 5.428641 -8.011490 -24.813589 -17.287056 -12.305020 12.900047 64.128323 -33.322507 49.173363 0.000000 0.000000 0.000000 -3.387441 -7.581625 -7.037700 0.507681 -10.047380 9.872756 0.083697 -15.550499 7.831743 0.000000 0.000000 0.000000 0.056384 -0.157420 3.443532 -1.821705 -8.651777 -3.126847 -5.176107 19.136033 1.803925 2.658899 -6.429329 -16.876251 0.000000 0.000000 0.000000 -7.057614 -5.600586 -50.778343 -36.412213 37.457704 -15.889962 -40.015008 -11.349033 -1.049430 0.000000 0.000000 0.000000 20.166947 -14.126057 30.800106 29.228244 42.219394 6.923902 -16.162350 35.295312 -2.850968 0.000000 0.000000 0.000000 
-0.828629 0.965044 -0.080634 179.188554 29.316246 -171.137013 3.481448 -7.072280 -23.116474 -13.120037 -10.827297 8.682378 63.082483 -43.056548 46.642320 0.000000 0.000000 0.000000 -3.787024 -8.429928 -6.846143 0.082379 -12.601755 12.322898 0.732783 -15.335886 8.284167 0.000000 0.000000 0.000000 0.278213 -0.235536 1.152384 -1.204051 -9.333297 -3.182381 -4.488716 20.489834 3.492708 2.669761 -8.082769 -18.300796 0.000000 0.000000 0.000000 -3.670203 -6.602693 -59.991516 -32.166569 47.405641 -17.641402 -40.689388 -5.796475 -3.388759 0.000000 0.000000 0.000000 17.970399 -15.186721 35.210152 29.500326 46.160382 10.138931 -21.286919 31.797308 -3.757764 0.000000 0.000000 0.000000 
-0.831404 0.962007 -0.110149 179.237919 23.647798 -172.239742 1.399860 -5.606036 -20.311972 -11.716229 -11.039008 7.704817 71.875334 -50.392070 37.890143 0.000000 0.000000 0.000000 -4.382704 -9.657424 -5.994786 -2.224706 -17.610496 17.486412 2.817165 -12.695314 11.167834 0.000000 0.000000 0.000000 0.215451 -0.195557 2.205840 -0.469785 -9.680284 -4.286103 -4.147605 19.685823 5.119323 -0.228878 -11.745515 -19.133694 0.000000 0.000000 0.000000 -0.193796 -7.966801 -74.376886 -17.172158 56.499597 -10.412290 -40.735762 1.516774 -5.814100 0.000000 0.000000 0.000000 15.692717 -17.788462 40.285069 28.435276 50.037943 13.036397 -23.534688 28.157281 -3.835881 0.000000 0.000000 0.000000 
-0.834986 0.960056 -0.140493 179.153001 18.895093 -173.112625 -0.050649 -4.369898 -17.647654 -11.940112 -12.143832 7.448587 82.860923 -55.401644 28.800636 0.000000 0.000000 0.000000 -7.501333 -15.005647 -8.692594 -15.355898 -29.071696 35.586601 17.126637 0.605355 14.354969 0.000000 0.000000 0.000000 -1.123306 -0.263792 3.317569 1.409172 -9.699110 -5.837527 -3.962496 17.631114 6.311444 -2.168031 -15.182173 -19.216639 0.000000 0.000000 0.000000 4.337501 -8.130763 -85.420000 -1.832566 62.426647 -1.726939 -40.250785 7.952892 -8.466290 0.000000 0.000000 0.000000 13.465367 -19.313165 46.089741 27.690534 54.283201 15.997036 -25.136636 23.181859 -3.551072 0.000000 0.000000 0.000000 
-0.837869 0.960791 -0.169058 179.664668 14.582000 -173.410821 -1.122236 -3.297243 -14.511703 -11.081269 -12.429561 6.418940 101.150027 -60.328373 14.296585 0.000000 0.000000 0.000000 -7.465587 -21.052238 -15.296968 -49.647655 -32.101606 63.927107 41.567008 10.983491 29.616999 0.000000 0.000000 0.000000 -1.029797 -0.311423 4.544115 0.612294 -9.536926 -6.935963 -2.215356 15.480172 7.551579 -4.239433 -18.998441 -19.784643 0.000000 0.000000 0.000000 9.862760 -8.289173 -100.487058 28.527558 63.715783 19.107264 -38.873602 16.059731 -11.554595 0.000000 0.000000 0.000000 11.925869 -22.188171 54.772169 21.762481 60.526643 15.937638 -26.849652 18.713286 -3.184534 0.000000 0.000000 0.000000 
-0.838918 0.962270 -0.195213 -179.675218 11.165509 -173.678776 -1.217129 -2.825946 -11.710130 -9.915151 -12.029216 5.555552 103.030115 -56.737845 8.726989 0.000000 0.000000 0.000000 -4.728922 -25.323140 -21.800180 -73.580271 -26.150728 75.384584 64.105218 4.075089 46.941108 0.000000 0.000000 0.000000 -0.465310 -0.397281 5.963361 0.052220 -10.975351 -6.361324 -1.934379 14.713541 7.173119 -5.464855 -21.551778 -19.458996 0.000000 0.000000 0.000000 12.803439 -8.176091 -107.535630 38.478517 62.441488 25.295775 -37.381599 18.009577 -12.282950 0.000000 0.000000 0.000000 9.541550 -22.931949 59.498796 20.904650 65.062742 19.142271 -26.975786 13.981945 -2.557433 0.000000 0.000000 0.000000 
-0.838654 0.964033 -0.221206 -179.152226 7.719108 -173.948317 -1.221292 -2.718173 -8.508179 -8.438964 -11.419608 3.564717 108.961388 -55.451698 1.546431 0.000000 0.000000 0.000000 -0.197130 -27.687345 -27.829399 -80.016297 -24.273737 74.608633 71.498051 -3.993617 51.423098 0.000000 0.000000 0.000000 0.088901 -0.523694 6.996968 0.730141 -11.788097 -6.509991 -2.312173 13.601440 7.808142 -3.494670 -21.631850 -21.120523 0.000000 0.000000 0.000000 16.699258 -7.305369 -115.987251 48.812540 59.912260 30.446434 -36.329460 21.307336 -13.869091 0.000000 0.000000 0.000000 8.469838 -25.067630 65.844562 11.847508 70.081591 15.016820 -25.701544 8.872295 -1.723789 0.000000 0.000000 0.000000 
